<svg class="heartIcon" xmlns="http://www.w3.org/2000/svg" width="22.559" height="21.722" viewBox="0 0 22.559 21.722">
    <path class="cls-1" d="M12.5,4.74,10.8,8.4a2.984,2.984,0,0,1-2.342,1.71l-4.011.509,2.968,2.809A2.987,2.987,0,0,1,8.3,16.166l-.761,4.012,3.508-1.949a3,3,0,0,1,2.915,0l3.508,1.949L16.7,16.166a2.987,2.987,0,0,1,.885-2.737l2.968-2.809-4.011-.509A2.984,2.984,0,0,1,14.2,8.4L12.5,4.74m0-3.37a.987.987,0,0,1,.907.578l2.61,5.608a1,1,0,0,0,.781.57L22.9,8.9a1,1,0,0,1,.562,1.718l-4.5,4.262a1,1,0,0,0-.295.912L19.828,21.9a1,1,0,0,1-1.468,1.06l-5.374-2.986a1,1,0,0,0-.972,0L6.641,22.963A1,1,0,0,1,5.172,21.9l1.158-6.109a1,1,0,0,0-.295-.912l-4.5-4.262A1,1,0,0,1,2.1,8.9L8.2,8.126a1,1,0,0,0,.781-.57l2.61-5.608A.987.987,0,0,1,12.5,1.37Z" transform="translate(-1.22 -1.37)" fill="#00a26a"/>
</svg>