<svg xmlns="http://www.w3.org/2000/svg" width="24.986" height="23.902" viewBox="0 0 24.986 23.902"><path d="M16.063,20.062l-3.1-1.631a.988.988,0,0,0-.92,0L6.49,21.348l1.06-6.18a.988.988,0,0,0-.284-.875L2.776,9.917l6.2-.9a.989.989,0,0,0,.745-.541L12.5,2.852l2.775,5.622a.99.99,0,0,0,.745.541l6.2.9-4.49,4.376a.989.989,0,0,0-.284.875l.515,3a4.667,4.667,0,0,1,1.913-.543l-.391-2.282,5.125-5A1.284,1.284,0,0,0,23.9,8.162L16.818,7.133,13.651.715A1.276,1.276,0,0,0,12.5,0h0a1.275,1.275,0,0,0-1.151.716L8.182,7.133,1.1,8.162a1.283,1.283,0,0,0-.711,2.189l5.124,5L4.3,22.4a1.281,1.281,0,0,0,1.862,1.353l6.334-3.33L15.506,22a4.665,4.665,0,0,1,.557-1.942" transform="translate(-0.001 0)" fill="#00a26a"/></svg>